<svg width="200" height="192" viewBox="0 0 200 192" fill="none" xmlns="http://www.w3.org/2000/svg">
    <g id="brain-right">
        <path id="Vector" d="M87.975 17.1458C88.085 28.0224 81.3247 21.3524 81.417 27.4615C81.4591 30.2535 85.0472 32.7439 86.9889 36.3503C89.2958 40.6347 89.9653 46.1303 89.2232 50.4755C88.7405 53.3016 87.7622 56.1468 86.4514 58.7466C82.8905 65.8092 77.216 69.6797 68.1628 68.9906C59.5595 68.3357 50.8932 68.4049 42.2636 67.996C39.153 67.8486 30.012 64.9071 29.7383 66.7188C29.3327 69.4038 30.9245 71.2918 33.3742 72.0169C37.673 73.2892 42.1012 74.5351 46.5653 74.9244C55.1585 75.6739 63.8516 75.5005 72.4295 76.3416C76.9691 76.7868 81.6339 78.0292 85.7452 79.8529C92.5257 82.8607 94.2955 88.1272 93.6142 96.3016C92.958 104.174 88.9415 109.57 81.55 113.2C79.8985 114.011 78.3271 114.979 76.8011 115.98C74.2142 117.677 74.401 119.658 77.2281 120.895C78.8739 121.615 80.57 122.238 82.2227 122.946C89.8801 126.225 94.9124 135.577 92.9913 142.929C92.0307 146.605 87.1242 148.208 83.9224 145.922C79.0261 142.425 73.7329 139.702 67.412 139.11C62.2458 138.626 57.8506 140.1 54.5045 143.766C53.8457 144.488 53.2633 145.912 53.6136 146.596C54.0226 147.394 55.442 148.066 56.5138 148.206C58.5708 148.472 60.6938 148.389 62.7862 148.338C76.065 148.015 84.6027 153.589 89.1108 165.093C94.4179 178.637 82.9854 189.277 71.207 191.495C63.0566 193.031 56.0972 190.353 49.7139 186.024C43.7193 181.96 38.8083 176.928 34.2241 171.169C38.6132 171.353 42.6783 171.325 46.6886 171.741C52.1108 172.303 57.4967 173.173 62.884 173.99C63.9186 174.147 64.9287 174.594 65.8787 175.036C68.5386 176.274 68.5669 177.752 66.2457 179.516C64.9078 179.96 63.1568 181.05 64.2719 182.168C65.456 183.252 66.3491 183.35 67.4797 183.644C68.4219 183.888 69.5203 183.799 70.5171 183.662C73.4179 183.261 76.1859 182.46 77.3975 179.707C78.6216 176.924 77.1104 174.633 75.3128 172.523C70.5226 166.899 63.6961 165.455 56.4614 164.943C46.2468 164.222 36.0204 163.631 25.8159 162.808C23.5104 162.622 21.1898 161.901 19.0231 161.095C13.4958 159.039 11.4724 154.418 13.5748 149.336C17.0096 150.229 20.3778 151.41 23.8642 151.949C31.4828 153.125 38.516 151.673 44.4786 146.953C47.4477 144.603 49.0664 141.66 48.4106 137.927C48.0524 135.889 46.7465 135.26 44.9228 136.453C43.0934 137.649 41.3544 138.984 39.7045 140.386C35.1322 144.27 29.8134 145.338 23.8727 143.995C17.5445 142.565 11.8522 140.119 8.55275 134.601C4.94788 128.572 7.24521 120.315 13.9432 114.769C15.3203 113.629 16.8768 112.671 17.9826 111.89C20.6102 113.718 22.874 115.414 25.2777 116.922C26.7767 117.863 28.3897 117.833 29.4125 116.184C30.4451 114.519 30.1937 113.028 28.5316 111.717C26.9973 110.507 25.3316 109.333 24.1701 107.85C21.0612 103.879 21.7933 98.581 25.7102 95.2667C26.1359 94.9065 26.81 94.6002 27.3713 94.5968C33.9708 94.5566 40.5738 94.4742 47.1688 94.6389C49.6518 94.7009 52.2247 95.0862 54.5684 95.8254C60.3075 97.6355 63.5264 102.515 62.6474 107.527C61.8414 112.122 57.1378 115.567 51.2192 115.867C50.1481 115.922 49.0496 115.762 48.0045 115.924C45.469 116 45.9556 118.464 46.4031 118.962C50.5295 123.554 57.0264 124.703 62.6661 121.937C75.9761 115.41 76.9977 98.798 64.571 91.0868C59.9638 88.2279 54.8295 86.644 49.3405 86.3899C42.6459 86.0801 35.9189 86.3409 29.2267 86.0065C22.7485 85.6828 16.9533 83.5548 12.5906 78.9395C9.209 75.3621 8.49043 71.2481 10.2843 66.7987C13.7312 58.2491 22.7003 53.8245 33.3734 55.705C40.5811 56.975 47.6524 58.944 54.8879 60.0149C59.4273 60.6868 64.2193 60.7435 68.7885 60.2407C76.1517 59.4306 80.5377 55.1614 82.1225 48.5521C83.7202 41.8886 81.8669 36.2531 75.857 32.0184C70.9025 28.5273 65.1019 26.992 59.0168 26.2308C52.3929 25.4022 45.8416 25.6753 39.4252 27.5201C35.7757 28.7856 35.3915 30.9832 35.6057 32.077C35.7481 32.8041 37.6381 33.7029 38.7688 33.7302C44.1266 33.8597 49.5066 33.472 54.8512 33.7363C60.5289 34.017 66.2435 34.5949 70.7098 38.5081C73.9611 41.3568 75.2826 44.9704 74.0188 47.8946C72.6411 51.0823 69.0559 53.1315 64.4654 52.8957C61.1619 52.7261 57.8597 52.1951 54.6078 51.5939C47.6705 50.3115 40.7917 48.7532 33.8364 47.5667C30.8666 47.0601 27.7654 47.2006 24.635 47.0426C21.487 39.5266 19.6302 35.0056 27.8108 28.0198C35.3761 21.5594 44.3369 17.0497 55.0893 17.2941C58.7866 17.3781 62.4347 18.8633 66.1286 19.6118C69.2334 20.241 72.3655 20.7657 75.5017 21.2482C76.0734 21.3361 78.7136 21.8505 78.0018 20.7034C76.8742 19.1229 76.1512 17.5627 74.9244 16.4838C69.3554 11.5859 62.4735 9.53515 54.8951 9.18189C53.8767 9.13443 52.8542 9.16286 51.8338 9.14829C51.7375 9.14692 51.6422 9.08891 51.2664 8.96451C54.0177 4.98051 57.4223 1.77646 62.4531 0.65164C69.1389 -0.843185 75.5188 0.344328 81.2351 3.77818C86.9988 7.24058 87.9037 10.0976 87.975 17.1458ZM12.1563 88.3169C10.6113 87.4914 9.64341 87.5926 8.37075 88.5646C1.69622 93.6625 -0.264288 100.459 0.0277613 108.025C0.131072 110.701 1.01378 113.169 3.53426 114.785C5.69259 113.1 7.59548 111.341 9.79005 109.977C12.0254 108.587 14.5478 107.586 17.0392 106.368C16.0014 101.15 17.644 96.3928 20.7183 92.0407C17.753 90.779 14.8293 89.745 12.1563 88.3169Z" fill="url(#paint0_linear)" />
        <path id="Vector_2" d="M112.574 17.625C112.754 11.1389 113.454 8.20933 116.062 5.68012C124.647 -2.64691 139.798 -1.6721 146.882 7.64329C147.178 8.03144 147.429 8.44877 147.807 9.0107C137.316 9.37206 127.713 11.1095 121.908 20.0768C121.999 20.4234 122.09 20.7701 122.182 21.1167C124.21 21.1167 126.279 21.3504 128.255 21.0513C130.249 20.7496 132.213 20.0543 134.081 19.2964C141.583 16.2529 149.056 16.5581 156.415 19.5324C162.271 21.8988 167.846 24.7662 172.214 29.2846C176.134 33.3403 177.495 37.9083 175.342 43.1839C174.803 44.5048 174.414 45.8794 173.951 47.2415C161.995 46.4256 151.099 51.0353 139.646 52.4647C137.073 52.7859 134.376 52.9505 131.829 52.5984C126.18 51.8173 123.454 46.413 126.18 41.7117C128.938 36.953 133.611 34.7268 139.081 34.3433C145.868 33.8675 152.697 33.9016 159.51 33.7836C161.142 33.7554 162.83 33.9397 163.278 32.001C163.716 30.1092 162.893 28.6453 160.907 28.0443C148.496 24.2898 136.406 24.8338 125.086 31.1807C118.157 35.0652 115.746 41.5233 117.696 48.9392C119.562 56.0366 124.501 59.8602 132.773 60.6068C141.546 61.3986 149.863 59.191 158.194 57.1569C163.665 55.8209 169.119 54.6682 174.807 55.8285C183.446 57.5906 190.07 65.9949 188.574 73.4042C187.709 77.6892 184.716 80.5438 180.901 82.6864C176.274 85.2856 171.208 86.2205 165.814 86.1297C158.106 85.9999 150.348 85.4934 142.789 87.5647C138.049 88.8633 133.855 91.0867 130.493 94.4704C123.414 101.596 125.208 113.8 134.215 120.442C140.088 124.773 146.861 124.441 152.073 119.435C152.711 118.822 152.989 117.626 152.909 116.742C152.879 116.401 151.408 116.037 150.557 115.925C148.797 115.693 146.967 115.812 145.246 115.45C140.178 114.382 137.083 111.122 136.521 106.531C136.047 102.655 138.862 98.3623 143.217 96.3233C147.438 94.3473 151.977 94.577 156.499 94.6099C161.171 94.6438 165.845 94.5553 170.516 94.6366C171.4 94.652 172.497 94.9952 173.115 95.5553C177.368 99.4104 177.2 105.617 172.794 109.664C171.937 110.452 170.912 111.078 169.977 111.793C168.364 113.026 168.235 114.575 169.177 116.155C170.142 117.774 171.721 117.891 173.221 116.925C175.573 115.409 177.801 113.726 180.267 111.982C186.129 114.331 191.383 122.103 191.226 128.647C191.073 135.066 186.478 140.158 178.254 143.018C170.712 145.641 163.838 145.081 157.944 139.414C156.744 138.261 155.322 137.281 153.888 136.381C152.288 135.377 151.103 135.757 150.677 137.633C149.708 141.903 151.775 145.069 155.158 147.502C163.506 153.504 172.61 153.432 182.022 150.057C182.85 149.76 183.653 149.407 184.459 149.083C186.828 153.148 185.201 158.846 180.465 160.476C175.659 162.13 170.478 163.133 165.372 163.651C156.244 164.576 147.033 164.77 137.888 165.574C132.845 166.018 128.38 168.052 124.987 171.736C122.773 174.14 120.769 176.72 122.418 180.116C123.669 182.69 127.978 184.27 131.947 183.634C133.057 183.456 134.056 182.669 135.106 182.161C134.459 181.265 133.987 180.17 133.131 179.512C130.815 177.731 130.777 175.871 133.644 175.031C138.021 173.748 142.549 172.731 147.094 172.187C152.737 171.511 158.462 171.431 164.946 171.047C161.635 174.576 158.927 177.755 155.893 180.631C150.363 185.872 144.223 190.24 136.194 191.667C122.132 194.167 107.833 182.171 109.617 169.312C111.372 156.662 122.245 147.952 135.805 148.303C138.063 148.361 140.348 148.468 142.575 148.207C143.657 148.08 145.044 147.362 145.522 146.525C145.876 145.903 145.261 144.439 144.608 143.73C140.267 139.014 134.564 137.83 128.592 139.786C124.064 141.27 119.833 143.704 115.723 146.096C112.72 147.843 108.062 146.598 107.074 143.324C104.986 136.412 109.48 126.924 116.562 123.427C118.417 122.511 120.386 121.801 122.285 120.962C125.098 119.72 125.323 117.618 122.753 115.937C120.73 114.615 118.68 113.29 116.499 112.225C105.437 106.821 105.092 94.032 107.38 86.4616C108.559 82.5612 112.055 80.4853 115.757 78.914C122.982 75.847 130.769 76.0045 138.474 75.5495C146.103 75.099 153.724 74.3827 161.308 73.4856C163.275 73.2529 165.234 72.0987 166.923 70.9992C167.876 70.3789 168.661 69.0503 168.799 67.9608C168.919 67.0081 168.3 65.5223 167.495 65.0639C166.87 64.7088 165.457 65.5913 164.387 65.8976C161.877 66.6156 159.396 67.7789 156.844 67.941C148.828 68.45 140.782 68.5152 132.753 68.8717C120.396 69.4205 113.345 64.2259 110.999 52.1319C110.252 48.2788 110.353 44.2115 110.624 40.2758C110.863 36.8002 112.858 33.9775 116.176 32.1234C117.167 31.57 118.199 31.0102 119.002 30.2566C119.722 29.5799 121.391 27.3043 118.229 25.9547C118.229 25.9547 112.393 24.1111 112.574 17.625ZM196.626 114.494C203.564 109.621 199.072 91.5193 189.792 87.6152C186.289 89.112 182.944 90.5411 179.429 92.043C182.638 96.4007 183.994 101.272 183.172 105.856C187.895 108.888 192.209 111.658 196.626 114.494Z" fill="url(#paint1_linear)" />
    </g>
    <defs>
        <linearGradient id="paint0_linear" x1="46.875" y1="0.0170898" x2="46.875" y2="191.932" gradientUnits="userSpaceOnUse">
            <stop stop-opacity="0.95" />
            <stop offset="1" stop-opacity="0.71" />
        </linearGradient>
        <linearGradient id="paint1_linear" x1="153.125" y1="0" x2="153.125" y2="192" gradientUnits="userSpaceOnUse">
            <stop stop-color="#A259FF" />
            <stop offset="0.234375" stop-color="#0ACF83" stop-opacity="0.8" />
            <stop offset="0.364583" stop-color="#F24E1E" stop-opacity="0.7" />
            <stop offset="0.552083" stop-color="#FF7262" />
            <stop offset="0.75" stop-color="#1ABCFE" stop-opacity="0.99" />
            <stop offset="1" stop-color="#FF7262" stop-opacity="0.87" />
        </linearGradient>
    </defs>
</svg>