<svg width="684" height="694" viewBox="0 0 684 694" fill="none" xmlns="http://www.w3.org/2000/svg">
<path d="M655.5 313.052V380.977C610.983 380.977 570 418.916 570 463.592C570 526.659 606.509 636.167 399 636.167V578.276C539.134 578.276 512.031 532.009 512.031 463.563C512.031 403.012 546.544 362.355 576.954 347C546.544 331.645 512.031 305.418 512.031 251.228C512.031 182.638 538.821 115.551 399 115.725V57.8335C606.622 57.8335 570 188.132 570 251.228C570 295.875 610.983 313.052 655.5 313.052V313.052ZM114 251.228C114 188.132 77.3775 57.8335 285 57.8335V115.725C145.179 115.522 171.969 182.609 171.969 251.228C171.969 305.447 137.456 331.645 107.046 347C137.456 362.355 171.969 403.041 171.969 463.563C171.969 532.009 144.866 578.276 285 578.276V636.167C77.4915 636.167 114 526.659 114 463.563C114 418.887 73.017 380.948 28.5 380.948V313.023C73.017 313.052 114 295.875 114 251.228V251.228Z" fill="#A259FF"/>
</svg>
