<svg width="128" height="115" viewBox="0 0 128 115" fill="none" xmlns="http://www.w3.org/2000/svg">
    <g id="perfect-brain">
        <path id="Vector" d="M72.1008 10.5566C72.2162 6.67174 72.6636 4.91705 74.331 3.40216C79.8203 -1.58539 89.5078 -1.00152 94.0373 4.57801C94.2261 4.8105 94.3868 5.06046 94.6287 5.39704C87.921 5.61347 81.7806 6.65415 78.0691 12.0252C78.1274 12.2328 78.1857 12.4404 78.2441 12.648C79.541 12.648 80.8636 12.788 82.1275 12.6088C83.4019 12.4282 84.658 12.0117 85.8525 11.5577C90.649 9.73483 95.4268 9.91758 100.133 11.6991C103.877 13.1165 107.441 14.8339 110.234 17.5403C112.74 19.9695 113.611 22.7055 112.234 25.8654C111.889 26.6565 111.64 27.4798 111.345 28.2957C103.7 27.807 96.7336 30.568 89.4102 31.4242C87.7651 31.6165 86.0409 31.7152 84.4125 31.5042C80.8008 31.0364 79.0576 27.7995 80.8003 24.9836C82.5642 22.1333 85.552 20.7999 89.0494 20.5702C93.3888 20.2852 97.7554 20.3057 102.111 20.235C103.155 20.2181 104.234 20.3285 104.521 19.1673C104.8 18.0341 104.275 17.1573 103.004 16.7974C95.069 14.5486 87.3391 14.8744 80.101 18.676C75.671 21.0026 74.1291 24.8707 75.3758 29.3125C76.569 33.5636 79.7272 35.8538 85.016 36.301C90.6252 36.7752 95.9434 35.453 101.27 34.2346C104.768 33.4344 108.255 32.744 111.892 33.4389C117.415 34.4944 121.651 39.5282 120.694 43.9661C120.141 46.5326 118.227 48.2424 115.789 49.5257C112.83 51.0825 109.591 51.6425 106.142 51.5881C101.213 51.5104 96.2531 51.207 91.4198 52.4476C88.3895 53.2254 85.7081 54.5571 83.5585 56.5839C79.0318 60.8518 80.1792 68.1617 85.938 72.1398C89.6928 74.7336 94.0234 74.5351 97.3561 71.5367C97.764 71.1697 97.9415 70.4533 97.8909 69.9235C97.8714 69.7193 96.9311 69.5014 96.3871 69.4342C95.2615 69.2952 94.0913 69.3666 92.9912 69.1496C89.7504 68.5101 87.7716 66.5575 87.4125 63.8073C87.1095 61.4858 88.909 58.9149 91.6936 57.6936C94.3924 56.5101 97.2946 56.6477 100.186 56.6674C103.173 56.6877 106.162 56.6347 109.148 56.6834C109.714 56.6926 110.415 56.8982 110.81 57.2337C113.529 59.5427 113.422 63.2599 110.605 65.6841C110.057 66.156 109.402 66.5312 108.803 66.9594C107.772 67.6976 107.69 68.6259 108.292 69.5719C108.909 70.5418 109.919 70.612 110.878 70.0331C112.382 69.1255 113.806 68.117 115.383 67.0725C119.131 68.4795 122.49 73.1347 122.39 77.0543C122.292 80.8989 119.354 83.9487 114.096 85.6618C109.274 87.2329 104.878 86.8978 101.11 83.5031C100.343 82.8126 99.4335 82.2258 98.5168 81.6867C97.4936 81.0849 96.7358 81.3125 96.4635 82.4365C95.8437 84.9941 97.1656 86.8905 99.3288 88.3475C104.666 91.9425 110.487 91.8996 116.505 89.8778C117.034 89.7001 117.548 89.4884 118.063 89.2946C119.578 91.7292 118.538 95.1424 115.51 96.1187C112.437 97.1094 109.124 97.7096 105.859 98.0198C100.023 98.5744 94.1338 98.6903 88.2863 99.172C85.0619 99.4376 82.2071 100.656 80.0379 102.863C78.6224 104.302 77.3408 105.848 78.3954 107.882C79.1948 109.424 81.9503 110.37 84.4878 109.989C85.1977 109.883 85.8364 109.411 86.5077 109.107C86.094 108.57 85.792 107.914 85.2449 107.52C83.7639 106.453 83.7399 105.34 85.5729 104.836C88.3712 104.068 91.267 103.459 94.1725 103.133C97.7809 102.728 101.441 102.68 105.587 102.45C103.47 104.564 101.739 106.468 99.7984 108.19C96.2629 111.33 92.3369 113.946 87.2035 114.801C78.2125 116.298 69.0697 109.113 70.2103 101.411C71.3324 93.8339 78.2843 88.6173 86.9548 88.827C88.3985 88.8619 89.8595 88.9261 91.2831 88.7699C91.9752 88.694 92.8621 88.2635 93.1674 87.7622C93.394 87.3901 93.0007 86.5131 92.5832 86.0882C89.8077 83.2638 86.1611 82.5546 82.3426 83.7263C79.4476 84.6146 76.7424 86.0725 74.1144 87.5051C72.1946 88.5518 69.2165 87.806 68.5843 85.8452C67.2493 81.7051 70.1225 76.0221 74.651 73.9275C75.8368 73.3791 77.0959 72.9538 78.3103 72.4514C80.1087 71.7075 80.2526 70.4481 78.6093 69.4415C77.316 68.6493 76.0054 67.8562 74.6106 67.2179C67.5375 63.981 67.3175 56.3212 68.7801 51.7869C69.5337 49.4507 71.7691 48.2074 74.1361 47.2662C78.7561 45.4292 83.7344 45.5235 88.6609 45.251C93.5391 44.9812 98.4115 44.5521 103.261 44.0148C104.519 43.8754 105.771 43.1841 106.851 42.5255C107.46 42.154 107.962 41.3583 108.05 40.7057C108.127 40.135 107.732 39.2451 107.216 38.9706C106.817 38.7579 105.914 39.2864 105.229 39.4699C103.625 39.8999 102.039 40.5968 100.407 40.6938C95.2816 40.9987 90.1367 41.0377 85.0033 41.2513C77.1026 41.58 72.5939 38.4686 71.0941 31.2249C70.6163 28.917 70.6813 26.4808 70.8544 24.1235C71.0072 22.0418 72.2829 20.3511 74.4045 19.2406C75.0376 18.9091 75.6977 18.5738 76.2108 18.1225C76.6716 17.7171 77.7385 16.3541 75.7171 15.5458C75.7171 15.5458 71.9855 14.4415 72.1008 10.5566ZM125.842 68.5771C130.278 65.6582 127.407 54.8162 121.473 52.4778C119.233 53.3744 117.095 54.2304 114.847 55.1299C116.899 57.74 117.766 60.6577 117.24 63.4034C120.26 65.2195 123.018 66.8784 125.842 68.5771Z" fill="url(#paint0_linear)" />
        <path id="Vector_2" d="M56.2499 10.2639C56.3202 16.7815 51.9978 12.7846 52.0568 16.4453C52.0837 18.1184 54.3779 19.6107 55.6194 21.7717C57.0943 24.3391 57.5225 27.6321 57.0479 30.2359C56.7393 31.9294 56.1138 33.6343 55.2757 35.1921C52.9989 39.4242 49.3707 41.7435 43.5823 41.3306C38.0815 40.9382 32.5403 40.9796 27.0227 40.7346C25.0338 40.6463 19.1892 38.8836 19.0142 39.9692C18.7549 41.5782 19.7727 42.7095 21.3389 43.144C24.0875 43.9064 26.9189 44.653 29.7731 44.8863C35.2675 45.3354 40.8257 45.2315 46.3103 45.7355C49.2129 46.0022 52.1955 46.7467 54.8242 47.8395C59.1595 49.6419 60.2911 52.7977 59.8555 57.696C59.436 62.413 56.8679 65.6465 52.1418 67.8216C51.0859 68.3076 50.0812 68.8877 49.1054 69.4875C47.4515 70.5044 47.5709 71.6916 49.3785 72.433C50.4308 72.8645 51.5153 73.2379 52.5719 73.6619C57.468 75.6266 60.6856 81.2305 59.4572 85.6361C58.843 87.8391 55.7059 88.7996 53.6587 87.4295C50.5281 85.3344 47.1437 83.7028 43.1022 83.3479C39.799 83.0578 36.9888 83.9412 34.8494 86.1379C34.4281 86.5704 34.0558 87.4238 34.2797 87.8336C34.5412 88.3121 35.4488 88.7147 36.1341 88.7981C37.4493 88.958 38.8067 88.9082 40.1445 88.8777C48.6348 88.6838 54.0937 92.0238 56.9761 98.9177C60.3694 107.033 53.0596 113.409 45.5286 114.738C40.3175 115.658 35.8677 114.054 31.7863 111.46C27.9534 109.024 24.8134 106.009 21.8824 102.558C24.6887 102.669 27.2878 102.652 29.852 102.901C33.3188 103.238 36.7625 103.759 40.2071 104.249C40.8686 104.343 41.5144 104.611 42.1218 104.876C43.8225 105.618 43.8407 106.503 42.3565 107.56C41.5011 107.826 40.3815 108.479 41.0945 109.149C41.8515 109.799 42.4226 109.858 43.1455 110.033C43.7479 110.18 44.4502 110.127 45.0876 110.044C46.9423 109.804 48.7121 109.324 49.4868 107.674C50.2694 106.007 49.3032 104.634 48.1539 103.37C45.0911 99.9999 40.7263 99.1342 36.1005 98.8279C29.5695 98.3954 23.0309 98.0413 16.5063 97.5481C15.0322 97.4366 13.5485 97.005 12.1631 96.522C8.62901 95.2898 7.33531 92.5205 8.67952 89.4752C10.8757 90.0104 13.0292 90.7183 15.2584 91.0409C20.1296 91.7459 24.6265 90.8758 28.4389 88.0477C30.3373 86.6394 31.3723 84.8756 30.953 82.6391C30.724 81.4177 29.889 81.0405 28.7229 81.7555C27.5532 82.4726 26.4414 83.2724 25.3865 84.1122C22.463 86.4396 19.0623 87.0795 15.2639 86.275C11.2177 85.4181 7.5781 83.9527 5.4685 80.646C3.1636 77.0331 4.63248 72.0851 8.91507 68.7624C9.79558 68.0793 10.7908 67.5052 11.4978 67.0367C13.1778 68.1324 14.6253 69.1485 16.1622 70.0523C17.1206 70.616 18.1519 70.5983 18.8059 69.61C19.4661 68.6123 19.3054 67.7191 18.2427 66.9335C17.2617 66.2083 16.1966 65.5049 15.454 64.616C13.4662 62.2368 13.9343 59.0619 16.4387 57.0759C16.7109 56.86 17.1419 56.6765 17.5008 56.6744C21.7204 56.6504 25.9423 56.601 30.159 56.6997C31.7466 56.7368 33.3917 56.9677 34.8902 57.4106C38.5597 58.4953 40.6178 61.4189 40.0558 64.4223C39.5404 67.1762 36.5331 69.2401 32.7487 69.4203C32.0639 69.4529 31.3615 69.3574 30.6934 69.454C29.0722 69.5 29.3833 70.9765 29.6694 71.2749C32.3078 74.0263 36.4618 74.7146 40.0678 73.0573C48.578 69.146 49.2312 59.1919 41.2857 54.5712C38.34 52.858 35.0571 51.909 31.5476 51.7567C27.2671 51.571 22.966 51.7273 18.6871 51.5269C14.545 51.3329 10.8397 50.0578 8.05026 47.2922C5.88809 45.1486 5.42865 42.6833 6.57561 40.0171C8.77951 34.894 14.5142 32.2427 21.3384 33.3696C25.9469 34.1305 30.4682 35.3104 35.0945 35.9521C37.9969 36.3547 41.0608 36.3887 43.9823 36.0874C48.6902 35.602 51.4946 33.0438 52.5078 29.0833C53.5294 25.0904 52.3444 21.7135 48.5018 19.1759C45.334 17.084 41.6251 16.164 37.7344 15.7079C33.4992 15.2114 29.3104 15.375 25.2078 16.4805C22.8744 17.2388 22.6288 18.5556 22.7657 19.2111C22.8568 19.6468 24.0652 20.1853 24.7882 20.2017C28.2139 20.2793 31.6538 20.047 35.071 20.2054C38.7012 20.3736 42.3551 20.7198 45.2108 23.0647C47.2896 24.7717 48.1345 26.9371 47.3265 28.6893C46.4456 30.5995 44.1533 31.8274 41.2182 31.6862C39.106 31.5845 36.9946 31.2663 34.9154 30.9061C30.4798 30.1376 26.0816 29.2039 21.6345 28.4929C19.7356 28.1893 17.7528 28.2735 15.7512 28.1788C13.7385 23.675 12.5513 20.9659 17.7818 16.7799C22.619 12.9087 28.3483 10.2064 35.2233 10.3528C37.5872 10.4031 39.9198 11.2931 42.2816 11.7416C44.2668 12.1186 46.2694 12.4331 48.2746 12.7222C48.6401 12.7749 50.3283 13.0831 49.8732 12.3957C49.1522 11.4486 48.6899 10.5138 47.9055 9.86723C44.3448 6.93232 39.9446 5.70345 35.0991 5.49177C34.448 5.46333 33.7942 5.48037 33.1417 5.47163C33.0802 5.47081 33.0192 5.43606 32.7789 5.36151C34.5381 2.9742 36.715 1.05426 39.9316 0.380237C44.2064 -0.515497 48.2856 0.196089 51.9405 2.25373C55.6257 4.32849 56.2043 6.0405 56.2499 10.2639ZM7.77257 52.9113C6.7847 52.4167 6.16585 52.4774 5.35213 53.0598C1.08454 56.1146 -0.168981 60.187 0.0177502 64.7207C0.0838053 66.3245 0.648194 67.8033 2.25975 68.7716C3.63976 67.7619 4.85643 66.7082 6.25961 65.8907C7.68886 65.0579 9.30164 64.4576 10.8946 63.7278C10.231 60.6012 11.2813 57.7507 13.247 55.1428C11.351 54.3867 9.48165 53.7671 7.77257 52.9113Z" fill="#B1361E" />
    </g>
    <defs>
        <linearGradient id="paint0_linear" x1="98.0288" y1="0" x2="98.0288" y2="115" gradientUnits="userSpaceOnUse">
            <stop stop-color="#A259FF" />
            <stop offset="0.234375" stop-color="#0ACF83" stop-opacity="0.8" />
            <stop offset="0.364583" stop-color="#F24E1E" stop-opacity="0.7" />
            <stop offset="0.552083" stop-color="#FF7262" />
            <stop offset="0.75" stop-color="#1ABCFE" stop-opacity="0.99" />
            <stop offset="1" stop-color="#FF7262" stop-opacity="0.87" />
        </linearGradient>
    </defs>
</svg>