<svg width="70" height="32" viewBox="0 0 70 32" fill="none" xmlns="http://www.w3.org/2000/svg">
<g id="rank">
<path id="Vector" d="M59.9493 29.5085L66.866 16.2325L59.9493 2.95654H10.2124L3.29565 16.2325L10.2124 29.5085H59.9493Z" fill="#141414"/>
<path id="5 kyu" d="M20.6151 14.756C21.1377 14.644 21.6184 14.588 22.0571 14.588C22.5797 14.588 23.0417 14.665 23.4431 14.819C23.8444 14.973 24.1781 15.1853 24.4441 15.456C24.7147 15.7267 24.9177 16.0463 25.0531 16.415C25.1931 16.7837 25.2631 17.185 25.2631 17.619C25.2631 18.151 25.1697 18.6317 24.9831 19.061C24.8011 19.4903 24.5467 19.859 24.2201 20.167C23.8981 20.4703 23.5177 20.7037 23.0791 20.867C22.6404 21.0303 22.1667 21.112 21.6581 21.112C21.3641 21.112 21.0817 21.0817 20.8111 21.021C20.5404 20.965 20.2861 20.888 20.0481 20.79C19.8147 20.692 19.5977 20.58 19.3971 20.454C19.1964 20.328 19.0191 20.195 18.8651 20.055L19.2501 19.523C19.3341 19.4017 19.4437 19.341 19.5791 19.341C19.6724 19.341 19.7774 19.3783 19.8941 19.453C20.0107 19.523 20.1531 19.6023 20.3211 19.691C20.4891 19.7797 20.6851 19.8613 20.9091 19.936C21.1377 20.006 21.4084 20.041 21.7211 20.041C22.0711 20.041 22.3861 19.985 22.6661 19.873C22.9461 19.761 23.1864 19.6023 23.3871 19.397C23.5877 19.187 23.7417 18.9373 23.8491 18.648C23.9564 18.3587 24.0101 18.0343 24.0101 17.675C24.0101 17.3623 23.9634 17.08 23.8701 16.828C23.7814 16.576 23.6437 16.3613 23.4571 16.184C23.2751 16.0067 23.0464 15.869 22.7711 15.771C22.4957 15.673 22.1737 15.624 21.8051 15.624C21.5531 15.624 21.2894 15.645 21.0141 15.687C20.7434 15.729 20.4657 15.7967 20.1811 15.89L19.3971 15.659L20.2021 10.969H24.9551V11.515C24.9551 11.6923 24.8991 11.8393 24.7871 11.956C24.6797 12.068 24.4931 12.124 24.2271 12.124H21.0771L20.6151 14.756ZM32.0242 10.689V16.758H32.3462C32.4395 16.758 32.5165 16.7463 32.5772 16.723C32.6425 16.695 32.7102 16.6413 32.7802 16.562L35.0202 14.161C35.0855 14.0817 35.1532 14.021 35.2232 13.979C35.2978 13.9323 35.3958 13.909 35.5172 13.909H36.6442L34.0332 16.688C33.9072 16.8467 33.7718 16.9703 33.6272 17.059C33.7112 17.115 33.7858 17.1803 33.8512 17.255C33.9212 17.325 33.9865 17.4067 34.0472 17.5L36.8192 21H35.7062C35.5988 21 35.5055 20.9837 35.4262 20.951C35.3515 20.9137 35.2862 20.8483 35.2302 20.755L32.8992 17.85C32.8292 17.752 32.7592 17.689 32.6892 17.661C32.6238 17.6283 32.5212 17.612 32.3812 17.612H32.0242V21H30.7712V10.689H32.0242ZM43.9986 13.909L40.0436 23.093C40.0016 23.1863 39.9479 23.261 39.8826 23.317C39.8219 23.373 39.7262 23.401 39.5956 23.401H38.6716L39.9666 20.587L37.0406 13.909H38.1186C38.2259 13.909 38.3099 13.937 38.3706 13.993C38.4359 14.0443 38.4802 14.1027 38.5036 14.168L40.4006 18.634C40.4752 18.83 40.5382 19.0353 40.5896 19.25C40.6549 19.0307 40.7249 18.823 40.7996 18.627L42.6406 14.168C42.6686 14.0933 42.7152 14.0327 42.7806 13.986C42.8506 13.9347 42.9276 13.909 43.0116 13.909H43.9986ZM50.9303 13.909V21H50.1883C50.011 21 49.899 20.9137 49.8523 20.741L49.7543 19.978C49.4463 20.3187 49.101 20.594 48.7183 20.804C48.3356 21.0093 47.897 21.112 47.4023 21.112C47.015 21.112 46.672 21.049 46.3733 20.923C46.0793 20.7923 45.832 20.6103 45.6313 20.377C45.4306 20.1437 45.279 19.8613 45.1763 19.53C45.0783 19.1987 45.0293 18.8323 45.0293 18.431V13.909H46.2753V18.431C46.2753 18.9677 46.3966 19.383 46.6393 19.677C46.8866 19.971 47.2623 20.118 47.7663 20.118C48.135 20.118 48.478 20.0317 48.7953 19.859C49.1173 19.6817 49.4136 19.439 49.6843 19.131V13.909H50.9303Z" fill="#ECB613"/>
<path id="Vector_2" d="M8.63767 31.8527L0 15.9263L8.63767 0H60.4626L69.1003 15.9263L60.4626 31.8527H8.63767ZM58.4504 28.1748L65.0994 15.9263L58.4504 3.67784H10.6328L3.98382 15.9263L10.6328 28.1748H58.4504Z" fill="#ECB613"/>
</g>
</svg>
